<mxfile host="app.diagrams.net" modified="2023-05-28T22:04:19.695Z" agent="Mozilla/5.0 (X11; Linux x86_64) AppleWebKit/537.36 (KHTML, like Gecko) Chrome/113.0.0.0 Safari/537.36" etag="fZIUczEUfB7-sSw4ErM0" version="21.3.5" type="github">
  <diagram name="Page-1" id="2YBvvXClWsGukQMizWep">
    <mxGraphModel dx="880" dy="495" grid="1" gridSize="10" guides="1" tooltips="1" connect="1" arrows="1" fold="1" page="1" pageScale="1" pageWidth="850" pageHeight="1100" math="0" shadow="0">
      <root>
        <mxCell id="0" />
        <mxCell id="1" parent="0" />
        <mxCell id="3TTGQgDJa9Zs4WOGPVfe-60" value="" style="strokeWidth=2;html=1;shape=mxgraph.flowchart.annotation_2;align=left;labelPosition=right;pointerEvents=1;rotation=90;" vertex="1" parent="1">
          <mxGeometry x="357.5" y="20" width="142.5" height="411.25" as="geometry" />
        </mxCell>
        <mxCell id="3TTGQgDJa9Zs4WOGPVfe-80" value="" style="endArrow=none;html=1;rounded=0;" edge="1" parent="1">
          <mxGeometry width="50" height="50" relative="1" as="geometry">
            <mxPoint x="467.5" y="520" as="sourcePoint" />
            <mxPoint x="517.5" y="470" as="targetPoint" />
          </mxGeometry>
        </mxCell>
        <mxCell id="3TTGQgDJa9Zs4WOGPVfe-78" value="" style="endArrow=none;html=1;rounded=0;" edge="1" parent="1">
          <mxGeometry width="50" height="50" relative="1" as="geometry">
            <mxPoint x="656.25" y="360" as="sourcePoint" />
            <mxPoint x="711.25" y="405" as="targetPoint" />
            <Array as="points">
              <mxPoint x="711.25" y="405" />
            </Array>
          </mxGeometry>
        </mxCell>
        <mxCell id="3TTGQgDJa9Zs4WOGPVfe-79" value="" style="endArrow=none;html=1;rounded=0;" edge="1" parent="1">
          <mxGeometry width="50" height="50" relative="1" as="geometry">
            <mxPoint x="583.75" y="410" as="sourcePoint" />
            <mxPoint x="633.75" y="360" as="targetPoint" />
          </mxGeometry>
        </mxCell>
        <mxCell id="3TTGQgDJa9Zs4WOGPVfe-75" value="" style="endArrow=none;html=1;rounded=0;" edge="1" parent="1">
          <mxGeometry width="50" height="50" relative="1" as="geometry">
            <mxPoint x="760" y="470" as="sourcePoint" />
            <mxPoint x="815" y="515" as="targetPoint" />
            <Array as="points">
              <mxPoint x="815" y="515" />
            </Array>
          </mxGeometry>
        </mxCell>
        <mxCell id="3TTGQgDJa9Zs4WOGPVfe-76" value="" style="endArrow=none;html=1;rounded=0;" edge="1" parent="1">
          <mxGeometry width="50" height="50" relative="1" as="geometry">
            <mxPoint x="677.5" y="520" as="sourcePoint" />
            <mxPoint x="727.5" y="470" as="targetPoint" />
          </mxGeometry>
        </mxCell>
        <mxCell id="3TTGQgDJa9Zs4WOGPVfe-77" value="" style="rounded=0;whiteSpace=wrap;html=1;" vertex="1" parent="1">
          <mxGeometry x="607.5" y="500" width="120" height="60" as="geometry" />
        </mxCell>
        <mxCell id="3TTGQgDJa9Zs4WOGPVfe-66" value="" style="endArrow=none;html=1;rounded=0;" edge="1" parent="1">
          <mxGeometry width="50" height="50" relative="1" as="geometry">
            <mxPoint x="362.5" y="470" as="sourcePoint" />
            <mxPoint x="417.5" y="515" as="targetPoint" />
            <Array as="points">
              <mxPoint x="417.5" y="515" />
            </Array>
          </mxGeometry>
        </mxCell>
        <mxCell id="3TTGQgDJa9Zs4WOGPVfe-65" value="" style="endArrow=none;html=1;rounded=0;" edge="1" parent="1">
          <mxGeometry width="50" height="50" relative="1" as="geometry">
            <mxPoint x="142.5" y="470" as="sourcePoint" />
            <mxPoint x="197.5" y="515" as="targetPoint" />
            <Array as="points">
              <mxPoint x="197.5" y="515" />
            </Array>
          </mxGeometry>
        </mxCell>
        <mxCell id="3TTGQgDJa9Zs4WOGPVfe-63" value="" style="endArrow=none;html=1;rounded=0;" edge="1" parent="1">
          <mxGeometry width="50" height="50" relative="1" as="geometry">
            <mxPoint x="60" y="520" as="sourcePoint" />
            <mxPoint x="110" y="470" as="targetPoint" />
          </mxGeometry>
        </mxCell>
        <mxCell id="3TTGQgDJa9Zs4WOGPVfe-62" value="" style="endArrow=none;html=1;rounded=0;" edge="1" parent="1">
          <mxGeometry width="50" height="50" relative="1" as="geometry">
            <mxPoint x="237.5" y="365" as="sourcePoint" />
            <mxPoint x="292.5" y="410" as="targetPoint" />
            <Array as="points">
              <mxPoint x="292.5" y="410" />
            </Array>
          </mxGeometry>
        </mxCell>
        <mxCell id="3TTGQgDJa9Zs4WOGPVfe-61" value="" style="endArrow=none;html=1;rounded=0;" edge="1" parent="1">
          <mxGeometry width="50" height="50" relative="1" as="geometry">
            <mxPoint x="165" y="415" as="sourcePoint" />
            <mxPoint x="215" y="365" as="targetPoint" />
          </mxGeometry>
        </mxCell>
        <mxCell id="3TTGQgDJa9Zs4WOGPVfe-7" value="" style="rounded=0;whiteSpace=wrap;html=1;" vertex="1" parent="1">
          <mxGeometry x="60" y="400" width="140" height="70" as="geometry" />
        </mxCell>
        <mxCell id="3TTGQgDJa9Zs4WOGPVfe-8" value="VIEW" style="text;html=1;strokeColor=none;fillColor=none;align=center;verticalAlign=middle;whiteSpace=wrap;rounded=0;" vertex="1" parent="1">
          <mxGeometry x="100" y="400" width="60" height="30" as="geometry" />
        </mxCell>
        <mxCell id="3TTGQgDJa9Zs4WOGPVfe-9" value="" style="rounded=0;whiteSpace=wrap;html=1;" vertex="1" parent="1">
          <mxGeometry x="70" y="440" width="120" height="20" as="geometry" />
        </mxCell>
        <mxCell id="3TTGQgDJa9Zs4WOGPVfe-10" value="jugadores.view.php" style="text;html=1;strokeColor=none;fillColor=none;align=center;verticalAlign=middle;whiteSpace=wrap;rounded=0;" vertex="1" parent="1">
          <mxGeometry x="100" y="435" width="60" height="30" as="geometry" />
        </mxCell>
        <mxCell id="3TTGQgDJa9Zs4WOGPVfe-11" value="" style="rounded=0;whiteSpace=wrap;html=1;" vertex="1" parent="1">
          <mxGeometry x="250" y="400" width="140" height="70" as="geometry" />
        </mxCell>
        <mxCell id="3TTGQgDJa9Zs4WOGPVfe-12" value="MODEL" style="text;html=1;strokeColor=none;fillColor=none;align=center;verticalAlign=middle;whiteSpace=wrap;rounded=0;" vertex="1" parent="1">
          <mxGeometry x="290" y="400" width="60" height="30" as="geometry" />
        </mxCell>
        <mxCell id="3TTGQgDJa9Zs4WOGPVfe-13" value="" style="rounded=0;whiteSpace=wrap;html=1;" vertex="1" parent="1">
          <mxGeometry x="260" y="440" width="120" height="20" as="geometry" />
        </mxCell>
        <mxCell id="3TTGQgDJa9Zs4WOGPVfe-14" value="jugadores.model.php" style="text;html=1;strokeColor=none;fillColor=none;align=center;verticalAlign=middle;whiteSpace=wrap;rounded=0;" vertex="1" parent="1">
          <mxGeometry x="290" y="435" width="60" height="30" as="geometry" />
        </mxCell>
        <mxCell id="3TTGQgDJa9Zs4WOGPVfe-15" value="" style="rounded=0;whiteSpace=wrap;html=1;" vertex="1" parent="1">
          <mxGeometry y="510" width="120" height="60" as="geometry" />
        </mxCell>
        <mxCell id="3TTGQgDJa9Zs4WOGPVfe-16" value="SMARTY" style="text;html=1;strokeColor=none;fillColor=none;align=center;verticalAlign=middle;whiteSpace=wrap;rounded=0;" vertex="1" parent="1">
          <mxGeometry x="30" y="505" width="60" height="30" as="geometry" />
        </mxCell>
        <mxCell id="3TTGQgDJa9Zs4WOGPVfe-17" value="" style="rounded=0;whiteSpace=wrap;html=1;" vertex="1" parent="1">
          <mxGeometry x="12.5" y="545" width="95" height="20" as="geometry" />
        </mxCell>
        <mxCell id="3TTGQgDJa9Zs4WOGPVfe-18" value="jugador.tpl" style="text;html=1;strokeColor=none;fillColor=none;align=center;verticalAlign=middle;whiteSpace=wrap;rounded=0;" vertex="1" parent="1">
          <mxGeometry x="30" y="540" width="60" height="30" as="geometry" />
        </mxCell>
        <mxCell id="3TTGQgDJa9Zs4WOGPVfe-19" value="" style="rounded=0;whiteSpace=wrap;html=1;" vertex="1" parent="1">
          <mxGeometry x="355" y="500" width="140" height="70" as="geometry" />
        </mxCell>
        <mxCell id="3TTGQgDJa9Zs4WOGPVfe-20" value="BBDD" style="text;html=1;strokeColor=none;fillColor=none;align=center;verticalAlign=middle;whiteSpace=wrap;rounded=0;" vertex="1" parent="1">
          <mxGeometry x="395" y="500" width="60" height="30" as="geometry" />
        </mxCell>
        <mxCell id="3TTGQgDJa9Zs4WOGPVfe-21" value="" style="rounded=0;whiteSpace=wrap;html=1;" vertex="1" parent="1">
          <mxGeometry x="377.5" y="540" width="95" height="20" as="geometry" />
        </mxCell>
        <mxCell id="3TTGQgDJa9Zs4WOGPVfe-22" value="db_mundial.php" style="text;html=1;strokeColor=none;fillColor=none;align=center;verticalAlign=middle;whiteSpace=wrap;rounded=0;" vertex="1" parent="1">
          <mxGeometry x="395" y="535" width="60" height="30" as="geometry" />
        </mxCell>
        <mxCell id="3TTGQgDJa9Zs4WOGPVfe-23" value="" style="rounded=0;whiteSpace=wrap;html=1;" vertex="1" parent="1">
          <mxGeometry x="477.5" y="400" width="140" height="70" as="geometry" />
        </mxCell>
        <mxCell id="3TTGQgDJa9Zs4WOGPVfe-24" value="MODEL" style="text;html=1;strokeColor=none;fillColor=none;align=center;verticalAlign=middle;whiteSpace=wrap;rounded=0;" vertex="1" parent="1">
          <mxGeometry x="517.5" y="400" width="60" height="30" as="geometry" />
        </mxCell>
        <mxCell id="3TTGQgDJa9Zs4WOGPVfe-25" value="" style="rounded=0;whiteSpace=wrap;html=1;" vertex="1" parent="1">
          <mxGeometry x="490" y="440" width="110" height="20" as="geometry" />
        </mxCell>
        <mxCell id="3TTGQgDJa9Zs4WOGPVfe-26" value="paises.model.php" style="text;html=1;strokeColor=none;fillColor=none;align=center;verticalAlign=middle;whiteSpace=wrap;rounded=0;" vertex="1" parent="1">
          <mxGeometry x="517.5" y="435" width="60" height="30" as="geometry" />
        </mxCell>
        <mxCell id="3TTGQgDJa9Zs4WOGPVfe-27" value="" style="rounded=0;whiteSpace=wrap;html=1;" vertex="1" parent="1">
          <mxGeometry x="677.5" y="400" width="140" height="70" as="geometry" />
        </mxCell>
        <mxCell id="3TTGQgDJa9Zs4WOGPVfe-28" value="VIEW" style="text;html=1;strokeColor=none;fillColor=none;align=center;verticalAlign=middle;whiteSpace=wrap;rounded=0;" vertex="1" parent="1">
          <mxGeometry x="717.5" y="400" width="60" height="30" as="geometry" />
        </mxCell>
        <mxCell id="3TTGQgDJa9Zs4WOGPVfe-29" value="" style="rounded=0;whiteSpace=wrap;html=1;" vertex="1" parent="1">
          <mxGeometry x="690" y="440" width="120" height="20" as="geometry" />
        </mxCell>
        <mxCell id="3TTGQgDJa9Zs4WOGPVfe-30" value="paises.view.php" style="text;html=1;strokeColor=none;fillColor=none;align=center;verticalAlign=middle;whiteSpace=wrap;rounded=0;" vertex="1" parent="1">
          <mxGeometry x="717.5" y="435" width="60" height="30" as="geometry" />
        </mxCell>
        <mxCell id="3TTGQgDJa9Zs4WOGPVfe-39" value="" style="rounded=0;whiteSpace=wrap;html=1;" vertex="1" parent="1">
          <mxGeometry x="140" y="295" width="172.5" height="70" as="geometry" />
        </mxCell>
        <mxCell id="3TTGQgDJa9Zs4WOGPVfe-40" value="CONTROLLER" style="text;html=1;strokeColor=none;fillColor=none;align=center;verticalAlign=middle;whiteSpace=wrap;rounded=0;" vertex="1" parent="1">
          <mxGeometry x="196.25" y="295" width="60" height="30" as="geometry" />
        </mxCell>
        <mxCell id="3TTGQgDJa9Zs4WOGPVfe-41" value="" style="rounded=0;whiteSpace=wrap;html=1;" vertex="1" parent="1">
          <mxGeometry x="156.25" y="335" width="140" height="20" as="geometry" />
        </mxCell>
        <mxCell id="3TTGQgDJa9Zs4WOGPVfe-42" value="jugadores.controller.php" style="text;html=1;strokeColor=none;fillColor=none;align=center;verticalAlign=middle;whiteSpace=wrap;rounded=0;" vertex="1" parent="1">
          <mxGeometry x="180" y="330" width="92.5" height="30" as="geometry" />
        </mxCell>
        <mxCell id="3TTGQgDJa9Zs4WOGPVfe-47" value="" style="rounded=0;whiteSpace=wrap;html=1;" vertex="1" parent="1">
          <mxGeometry x="555" y="295" width="172.5" height="70" as="geometry" />
        </mxCell>
        <mxCell id="3TTGQgDJa9Zs4WOGPVfe-48" value="CONTROLLER" style="text;html=1;strokeColor=none;fillColor=none;align=center;verticalAlign=middle;whiteSpace=wrap;rounded=0;" vertex="1" parent="1">
          <mxGeometry x="611.25" y="295" width="60" height="30" as="geometry" />
        </mxCell>
        <mxCell id="3TTGQgDJa9Zs4WOGPVfe-49" value="" style="rounded=0;whiteSpace=wrap;html=1;" vertex="1" parent="1">
          <mxGeometry x="571.25" y="335" width="140" height="20" as="geometry" />
        </mxCell>
        <mxCell id="3TTGQgDJa9Zs4WOGPVfe-50" value="paises.controller.php" style="text;html=1;strokeColor=none;fillColor=none;align=center;verticalAlign=middle;whiteSpace=wrap;rounded=0;" vertex="1" parent="1">
          <mxGeometry x="595" y="330" width="92.5" height="30" as="geometry" />
        </mxCell>
        <mxCell id="3TTGQgDJa9Zs4WOGPVfe-51" value="" style="rounded=0;whiteSpace=wrap;html=1;" vertex="1" parent="1">
          <mxGeometry x="130" y="510" width="120" height="60" as="geometry" />
        </mxCell>
        <mxCell id="3TTGQgDJa9Zs4WOGPVfe-52" value="SMARTY" style="text;html=1;strokeColor=none;fillColor=none;align=center;verticalAlign=middle;whiteSpace=wrap;rounded=0;" vertex="1" parent="1">
          <mxGeometry x="160" y="505" width="60" height="30" as="geometry" />
        </mxCell>
        <mxCell id="3TTGQgDJa9Zs4WOGPVfe-53" value="" style="rounded=0;whiteSpace=wrap;html=1;" vertex="1" parent="1">
          <mxGeometry x="142.5" y="545" width="95" height="20" as="geometry" />
        </mxCell>
        <mxCell id="3TTGQgDJa9Zs4WOGPVfe-54" value="jugadores.tpl" style="text;html=1;strokeColor=none;fillColor=none;align=center;verticalAlign=middle;whiteSpace=wrap;rounded=0;" vertex="1" parent="1">
          <mxGeometry x="160" y="540" width="60" height="30" as="geometry" />
        </mxCell>
        <mxCell id="3TTGQgDJa9Zs4WOGPVfe-68" value="SMARTY" style="text;html=1;strokeColor=none;fillColor=none;align=center;verticalAlign=middle;whiteSpace=wrap;rounded=0;" vertex="1" parent="1">
          <mxGeometry x="637.5" y="495" width="60" height="30" as="geometry" />
        </mxCell>
        <mxCell id="3TTGQgDJa9Zs4WOGPVfe-69" value="" style="rounded=0;whiteSpace=wrap;html=1;" vertex="1" parent="1">
          <mxGeometry x="620" y="535" width="95" height="20" as="geometry" />
        </mxCell>
        <mxCell id="3TTGQgDJa9Zs4WOGPVfe-70" value="paises.tpl" style="text;html=1;strokeColor=none;fillColor=none;align=center;verticalAlign=middle;whiteSpace=wrap;rounded=0;" vertex="1" parent="1">
          <mxGeometry x="637.5" y="530" width="60" height="30" as="geometry" />
        </mxCell>
        <mxCell id="3TTGQgDJa9Zs4WOGPVfe-71" value="" style="rounded=0;whiteSpace=wrap;html=1;" vertex="1" parent="1">
          <mxGeometry x="737.5" y="500" width="120" height="60" as="geometry" />
        </mxCell>
        <mxCell id="3TTGQgDJa9Zs4WOGPVfe-72" value="SMARTY" style="text;html=1;strokeColor=none;fillColor=none;align=center;verticalAlign=middle;whiteSpace=wrap;rounded=0;" vertex="1" parent="1">
          <mxGeometry x="767.5" y="495" width="60" height="30" as="geometry" />
        </mxCell>
        <mxCell id="3TTGQgDJa9Zs4WOGPVfe-73" value="" style="rounded=0;whiteSpace=wrap;html=1;" vertex="1" parent="1">
          <mxGeometry x="750" y="535" width="95" height="20" as="geometry" />
        </mxCell>
        <mxCell id="3TTGQgDJa9Zs4WOGPVfe-74" value="pais.tpl" style="text;html=1;strokeColor=none;fillColor=none;align=center;verticalAlign=middle;whiteSpace=wrap;rounded=0;" vertex="1" parent="1">
          <mxGeometry x="767.5" y="530" width="60" height="30" as="geometry" />
        </mxCell>
        <mxCell id="3TTGQgDJa9Zs4WOGPVfe-1" value="" style="rounded=0;whiteSpace=wrap;html=1;" vertex="1" parent="1">
          <mxGeometry x="357.5" y="90" width="140" height="70" as="geometry" />
        </mxCell>
        <mxCell id="3TTGQgDJa9Zs4WOGPVfe-2" value="ROUTER" style="text;html=1;strokeColor=none;fillColor=none;align=center;verticalAlign=middle;whiteSpace=wrap;rounded=0;" vertex="1" parent="1">
          <mxGeometry x="397.5" y="90" width="60" height="30" as="geometry" />
        </mxCell>
        <mxCell id="3TTGQgDJa9Zs4WOGPVfe-4" value="" style="rounded=0;whiteSpace=wrap;html=1;" vertex="1" parent="1">
          <mxGeometry x="380" y="130" width="95" height="20" as="geometry" />
        </mxCell>
        <mxCell id="3TTGQgDJa9Zs4WOGPVfe-5" value="router.php" style="text;html=1;strokeColor=none;fillColor=none;align=center;verticalAlign=middle;whiteSpace=wrap;rounded=0;" vertex="1" parent="1">
          <mxGeometry x="397.5" y="125" width="60" height="30" as="geometry" />
        </mxCell>
      </root>
    </mxGraphModel>
  </diagram>
</mxfile>
